<svg xmlns="http://www.w3.org/2000/svg" width="2144" height="256" viewBox="0 0 2144 256">
  <defs>
    <!-- CRT scanline pattern -->
    <pattern id="scanlines" patternUnits="userSpaceOnUse" width="2144" height="4">
      <rect width="2144" height="2" fill="transparent"/>
      <rect y="2" width="2144" height="2" fill="rgba(0,0,0,0.3)"/>
    </pattern>
    <!-- Glow filter for terminal text -->
    <filter id="glow" x="-20%" y="-20%" width="140%" height="140%">
      <feGaussianBlur stdDeviation="3" result="blur"/>
      <feComposite in="SourceGraphic" in2="blur" operator="over"/>
    </filter>
    <!-- Stronger glow for title -->
    <filter id="glowStrong" x="-20%" y="-20%" width="140%" height="140%">
      <feGaussianBlur stdDeviation="6" result="blur1"/>
      <feGaussianBlur in="SourceGraphic" stdDeviation="2" result="blur2"/>
      <feMerge>
        <feMergeNode in="blur1"/>
        <feMergeNode in="blur2"/>
        <feMergeNode in="SourceGraphic"/>
      </feMerge>
    </filter>
    <!-- Subtle vignette -->
    <radialGradient id="vignette" cx="50%" cy="50%" r="60%">
      <stop offset="0%" stop-color="transparent"/>
      <stop offset="100%" stop-color="rgba(0,0,0,0.6)"/>
    </radialGradient>
    <!-- Signal wave gradient -->
    <linearGradient id="signalFade" x1="0%" y1="0%" x2="100%" y2="0%">
      <stop offset="0%" stop-color="#33FF33" stop-opacity="0.8"/>
      <stop offset="40%" stop-color="#22CC22" stop-opacity="0.4"/>
      <stop offset="70%" stop-color="#FFAA00" stop-opacity="0.2"/>
      <stop offset="100%" stop-color="#FF3333" stop-opacity="0.05"/>
    </linearGradient>
    <linearGradient id="signalFadeLeft" x1="100%" y1="0%" x2="0%" y2="0%">
      <stop offset="0%" stop-color="#33FF33" stop-opacity="0.8"/>
      <stop offset="40%" stop-color="#22CC22" stop-opacity="0.4"/>
      <stop offset="70%" stop-color="#FFAA00" stop-opacity="0.2"/>
      <stop offset="100%" stop-color="#FF3333" stop-opacity="0.05"/>
    </linearGradient>
  </defs>

  <!-- Background -->
  <rect width="2144" height="256" fill="#000000"/>

  <!-- Subtle grid lines for CRT feel -->
  <g opacity="0.06">
    <line x1="0" y1="64" x2="2144" y2="64" stroke="#22CC22" stroke-width="0.5"/>
    <line x1="0" y1="128" x2="2144" y2="128" stroke="#22CC22" stroke-width="0.5"/>
    <line x1="0" y1="192" x2="2144" y2="192" stroke="#22CC22" stroke-width="0.5"/>
  </g>

  <!-- Left decorative elements - signal arcs -->
  <g transform="translate(320, 128)" opacity="0.3">
    <circle cx="0" cy="0" r="40" fill="none" stroke="#22CC22" stroke-width="1.5" stroke-dasharray="8 12" opacity="0.6"/>
    <circle cx="0" cy="0" r="65" fill="none" stroke="#22CC22" stroke-width="1" stroke-dasharray="6 14" opacity="0.4"/>
    <circle cx="0" cy="0" r="90" fill="none" stroke="#1A9A1A" stroke-width="0.8" stroke-dasharray="4 16" opacity="0.25"/>
  </g>

  <!-- Right decorative elements - signal arcs -->
  <g transform="translate(1824, 128)" opacity="0.3">
    <circle cx="0" cy="0" r="40" fill="none" stroke="#22CC22" stroke-width="1.5" stroke-dasharray="8 12" opacity="0.6"/>
    <circle cx="0" cy="0" r="65" fill="none" stroke="#22CC22" stroke-width="1" stroke-dasharray="6 14" opacity="0.4"/>
    <circle cx="0" cy="0" r="90" fill="none" stroke="#1A9A1A" stroke-width="0.8" stroke-dasharray="4 16" opacity="0.25"/>
  </g>

  <!-- Left satellite icon -->
  <g transform="translate(310, 118)" filter="url(#glow)" opacity="0.7">
    <!-- Satellite body -->
    <rect x="-6" y="-6" width="12" height="12" rx="2" fill="none" stroke="#22CC22" stroke-width="1.5" transform="rotate(45)"/>
    <!-- Solar panels -->
    <line x1="-8" y1="0" x2="-22" y2="0" stroke="#22CC22" stroke-width="1.5"/>
    <rect x="-32" y="-5" width="12" height="10" rx="1" fill="none" stroke="#22CC22" stroke-width="1"/>
    <line x1="8" y1="0" x2="22" y2="0" stroke="#22CC22" stroke-width="1.5"/>
    <rect x="20" y="-5" width="12" height="10" rx="1" fill="none" stroke="#22CC22" stroke-width="1"/>
    <!-- Antenna -->
    <line x1="0" y1="-8" x2="0" y2="-16" stroke="#22CC22" stroke-width="1"/>
    <circle cx="0" cy="-18" r="2" fill="#33FF33"/>
  </g>

  <!-- Right satellite icon -->
  <g transform="translate(1834, 118)" filter="url(#glow)" opacity="0.7">
    <rect x="-6" y="-6" width="12" height="12" rx="2" fill="none" stroke="#22CC22" stroke-width="1.5" transform="rotate(45)"/>
    <line x1="-8" y1="0" x2="-22" y2="0" stroke="#22CC22" stroke-width="1.5"/>
    <rect x="-32" y="-5" width="12" height="10" rx="1" fill="none" stroke="#22CC22" stroke-width="1"/>
    <line x1="8" y1="0" x2="22" y2="0" stroke="#22CC22" stroke-width="1.5"/>
    <rect x="20" y="-5" width="12" height="10" rx="1" fill="none" stroke="#22CC22" stroke-width="1"/>
    <line x1="0" y1="-8" x2="0" y2="-16" stroke="#22CC22" stroke-width="1"/>
    <circle cx="0" cy="-18" r="2" fill="#33FF33"/>
  </g>

  <!-- Decorative signal waves from left satellite -->
  <g transform="translate(355, 118)" opacity="0.25">
    <path d="M0,-15 Q15,-15 15,0 Q15,15 0,15" fill="none" stroke="#22CC22" stroke-width="1.5"/>
    <path d="M8,-25 Q30,-25 30,0 Q30,25 8,25" fill="none" stroke="#22CC22" stroke-width="1" opacity="0.6"/>
    <path d="M16,-35 Q45,-35 45,0 Q45,35 16,35" fill="none" stroke="#1A9A1A" stroke-width="0.8" opacity="0.3"/>
  </g>

  <!-- Decorative signal waves from right satellite -->
  <g transform="translate(1789, 118)" opacity="0.25">
    <path d="M0,-15 Q-15,-15 -15,0 Q-15,15 0,15" fill="none" stroke="#22CC22" stroke-width="1.5"/>
    <path d="M-8,-25 Q-30,-25 -30,0 Q-30,25 -8,25" fill="none" stroke="#22CC22" stroke-width="1" opacity="0.6"/>
    <path d="M-16,-35 Q-45,-35 -45,0 Q-45,35 -16,35" fill="none" stroke="#1A9A1A" stroke-width="0.8" opacity="0.3"/>
  </g>

  <!-- Horizontal signal line left -->
  <line x1="100" y1="128" x2="550" y2="128" stroke="url(#signalFadeLeft)" stroke-width="1" opacity="0.4"/>

  <!-- Horizontal signal line right -->
  <line x1="1594" y1="128" x2="2044" y2="128" stroke="url(#signalFade)" stroke-width="1" opacity="0.4"/>

  <!-- Scattered stars/dots -->
  <g fill="#22CC22">
    <circle cx="150" cy="45" r="1" opacity="0.4"/>
    <circle cx="230" cy="200" r="1.2" opacity="0.3"/>
    <circle cx="480" cy="70" r="0.8" opacity="0.5"/>
    <circle cx="520" cy="190" r="1" opacity="0.35"/>
    <circle cx="680" cy="50" r="1.2" opacity="0.25"/>
    <circle cx="1460" cy="55" r="1" opacity="0.4"/>
    <circle cx="1620" cy="195" r="1.2" opacity="0.3"/>
    <circle cx="1700" cy="65" r="0.8" opacity="0.5"/>
    <circle cx="1900" cy="45" r="1" opacity="0.35"/>
    <circle cx="1980" cy="180" r="1.2" opacity="0.25"/>
    <circle cx="60" cy="100" r="0.8" opacity="0.3"/>
    <circle cx="2080" cy="90" r="0.8" opacity="0.3"/>
  </g>
  <g fill="#FFAA00">
    <circle cx="420" cy="40" r="0.8" opacity="0.25"/>
    <circle cx="1750" cy="210" r="0.8" opacity="0.25"/>
  </g>

  <!-- Terminal cursor blink left -->
  <rect x="560" y="146" width="3" height="18" fill="#22CC22" opacity="0.35"/>

  <!-- ORBYT Title -->
  <text x="1072" y="108" text-anchor="middle" font-family="'Courier New', 'Lucida Console', monospace" font-size="72" font-weight="bold" letter-spacing="24" fill="#22CC22" filter="url(#glowStrong)">ORBYT</text>

  <!-- Tagline -->
  <text x="1072" y="158" text-anchor="middle" font-family="'Courier New', 'Lucida Console', monospace" font-size="18" letter-spacing="6" fill="#1A9A1A" filter="url(#glow)">KEEP YOUR PEOPLE IN ORBIT</text>

  <!-- Terminal prompt decoration -->
  <text x="1072" y="195" text-anchor="middle" font-family="'Courier New', 'Lucida Console', monospace" font-size="12" letter-spacing="2" fill="#117711" opacity="0.5">&gt; a fitness tracker for your relationships_</text>

  <!-- Top border line -->
  <line x1="450" y1="38" x2="1694" y2="38" stroke="#1A9A1A" stroke-width="0.5" opacity="0.4"/>
  <!-- Bottom border line -->
  <line x1="450" y1="218" x2="1694" y2="218" stroke="#1A9A1A" stroke-width="0.5" opacity="0.4"/>
  <!-- Corner accents -->
  <polyline points="450,58 450,38 470,38" fill="none" stroke="#22CC22" stroke-width="1" opacity="0.5"/>
  <polyline points="1694,58 1694,38 1674,38" fill="none" stroke="#22CC22" stroke-width="1" opacity="0.5"/>
  <polyline points="450,198 450,218 470,218" fill="none" stroke="#22CC22" stroke-width="1" opacity="0.5"/>
  <polyline points="1694,198 1694,218 1674,218" fill="none" stroke="#22CC22" stroke-width="1" opacity="0.5"/>

  <!-- CRT Scanlines overlay -->
  <rect width="2144" height="256" fill="url(#scanlines)"/>

  <!-- Vignette overlay -->
  <rect width="2144" height="256" fill="url(#vignette)"/>
</svg>